<?xml version="1.0" encoding="UTF-8" standalone="no"?><!DOCTYPE svg PUBLIC "-//W3C//DTD SVG 1.1//EN" "http://www.w3.org/Graphics/SVG/1.1/DTD/svg11.dtd"><svg width="100%" height="100%" viewBox="0 0 185 256" version="1.1" xmlns="http://www.w3.org/2000/svg" xmlns:xlink="http://www.w3.org/1999/xlink" xml:space="preserve" xmlns:serif="http://www.serif.com/" style="fill-rule:evenodd;clip-rule:evenodd;stroke-linejoin:round;stroke-miterlimit:2;"><rect id="Page-1" serif:id="Page 1" x="-50.848" y="-22.893" width="500" height="500" style="fill:none;"/><g id="OBJECTS"><path d="M61.67,232.197c-12.623,1.333 -58.656,-4.667 -61.627,12.666c-2.224,15.334 83.157,10 98.011,10c8.162,0 65.471,5.505 54.574,-15.666c-6.698,-13 -73.874,-6.334 -90.958,-7" style="fill:#e3e9ff;fill-rule:nonzero;"/><path d="M84.226,63.53c14.334,0 23,1.666 28.667,16c3,7.666 5.333,14 -6,16c-3.667,0.666 -11.333,1 -14.667,-1.334c-3.333,-2 -3,-6 -4,-9.666" style="fill:#4f52c3;fill-rule:nonzero;"/><path d="M98.292,237.65c4.389,-0.005 9.777,-0.023 14.164,-0.064c0.594,-12.856 1.522,-34.399 0.395,-46.711c-1.715,-18.772 -3.6,-34.202 -7.2,-51.301l-49.5,-2.699c0.901,11.699 10.801,51.298 10.801,51.298c-1.68,2.798 -24.078,15.456 -34.488,24.503c2.662,4.609 5.574,8.97 9.094,12.923c12.839,-4.91 39.593,-25.377 42.494,-30.224c2.961,-4.954 -1.801,-24.301 0.9,-36.901c6.988,19.82 9.496,25.638 12.047,35.692c-2.365,12.437 -0.998,34.684 1.293,43.484" style="fill:#2f4251;fill-rule:nonzero;"/><path d="M55.564,151.195c0,-20 -20.737,-89.844 26.334,-87.667c28.338,1.311 24,63.667 28,85" style="fill:#6b6fff;fill-rule:nonzero;"/><path d="M54.395,151.004c8.228,3.368 17.826,2.325 26.497,2.098c10.047,-0.263 20.338,0.071 29.833,-3.765c2.212,-0.894 1.247,-4.522 -0.997,-3.616c-8.756,3.538 -18.333,3.539 -27.634,3.608c-8.783,0.066 -18.357,1.475 -26.702,-1.941c-2.239,-0.917 -3.203,2.713 -0.997,3.616" style="fill:#3a3c93;fill-rule:nonzero;"/><path d="M32.966,212.206c0,0 -11.705,2.863 -8.456,7.805c1.659,2.528 9.696,15.317 14.3,21.927c5.377,8.037 5.483,-3.114 2.449,-17.019c0,0 -4.546,-6.971 -7.021,-10.766" style="fill:#fc417e;fill-rule:nonzero;"/><path d="M22.484,219.272c5.205,8.856 10.591,17.599 16.862,25.75c1.06,1.375 3.437,0.017 2.362,-1.381c-6.271,-8.151 -11.658,-16.893 -16.863,-25.749c-0.892,-1.519 -3.257,-0.143 -2.361,1.38" style="fill:#bd315f;fill-rule:nonzero;"/><path d="M39.615,229.747l2.507,0c1.176,0 1.176,-1.823 0,-1.823l-2.507,0c-1.176,0 -1.176,1.823 0,1.823" style="fill:#bd315f;fill-rule:nonzero;"/><path d="M39.829,233.134c0.981,0.226 1.974,0.259 2.977,0.259c1.175,0.001 1.175,-1.822 0,-1.822c-0.84,-0.001 -1.671,-0.006 -2.493,-0.195c-1.144,-0.263 -1.63,1.494 -0.484,1.758" style="fill:#bd315f;fill-rule:nonzero;"/><path d="M97.757,236.854c0,0 -3.659,11.48 2.251,11.285c3.022,-0.098 18.126,-0.289 26.167,-0.771c9.661,-0.399 0.201,-6.303 -13.246,-10.963c0,0 -8.318,0.245 -12.848,0.379" style="fill:#fc417e;fill-rule:nonzero;"/><path d="M98.347,249.483c10.271,0.175 20.54,0.137 30.764,-0.965c1.734,-0.186 1.752,-2.923 0,-2.734c-10.224,1.101 -20.493,1.139 -30.764,0.965c-1.764,-0.031 -1.761,2.704 0,2.734" style="fill:#bd315f;fill-rule:nonzero;"/><path d="M116.201,240.31c0.435,-0.713 0.871,-1.426 1.307,-2.139c0.614,-1.006 -0.963,-1.921 -1.575,-0.92c-0.435,0.713 -0.871,1.426 -1.306,2.139c-0.614,1.007 0.963,1.922 1.574,0.92" style="fill:#bd315f;fill-rule:nonzero;"/><path d="M119.214,241.888c0.702,-0.713 1.242,-1.551 1.761,-2.4c0.614,-1.006 -0.963,-1.921 -1.574,-0.92c-0.441,0.72 -0.881,1.426 -1.476,2.031c-0.825,0.838 0.463,2.128 1.289,1.289" style="fill:#bd315f;fill-rule:nonzero;"/><path d="M156.893,67.866c8.296,-4.388 1.333,-14.666 -4.667,-10.666c0.088,-6.628 -9.287,-5.32 -8,0.333c-3.333,-5 -9.666,-4.333 -9,2.667c-3.666,-4 -8.666,-1.334 -6.666,3.666c-9,-2 -8.496,8.949 -1.334,12.667" style="fill:#008867;fill-rule:nonzero;"/><path d="M160.903,82.863c8.176,-10.33 0.667,-27.333 -6.667,-16c0.667,-8 -9.333,-11.333 -10.666,-2.666c-4.667,-4.667 -10.667,-2.667 -10.667,4c-11.333,-6 -8.667,8.666 -3.333,14" style="fill:#00b689;fill-rule:nonzero;"/><path d="M102.893,76.533c0.667,-3.667 4,-6.333 7.333,-7.333c-1.333,-2 -3.666,-4.667 -4.333,-7.334c8.333,-1.333 6.298,-0.794 7.667,6.667c0.269,1.466 1.346,0.8 4.333,1.333c2.796,0.499 4.333,4 5,6" style="fill:#008867;fill-rule:nonzero;"/><path d="M110.236,79.53c-13.333,-24 -40,38 -3.333,32" style="fill:#ff8700;fill-rule:nonzero;"/><path d="M116.903,78.197c1.333,-16 19.333,-0.667 21.333,7.333c4,15.333 -2.666,23.333 -18,22.667" style="fill:#ff8700;fill-rule:nonzero;"/><path d="M112.227,73.197c-12.945,-0.382 -15.991,43.666 1.343,45c18.666,0.666 16.653,-45.382 -1.343,-45" style="fill:#ffa100;fill-rule:nonzero;"/><path d="M144.903,75.53c-16,-1.333 -12.667,23.333 3.333,20.667c12.667,-2 14.657,-20.719 -3.333,-20.667" style="fill:#fc417e;fill-rule:nonzero;"/><path d="M147.226,73.866c-3.333,-0.333 -6.666,0.667 -9.333,2.334c2.333,0.333 4.667,0.333 6.667,0.333c0.333,2 -0.667,4 -1.334,5.667c4.334,-2.334 8.334,-4.334 12,0c1,-4 -0.775,-8.397 -8,-8.334" style="fill:#008867;fill-rule:nonzero;"/><path d="M147.226,74.866c0,-2.666 -0.666,-5.666 0,-8c5.667,-0.666 2.667,5 2,8.334" style="fill:#008867;fill-rule:nonzero;"/><path d="M169.893,70.2c1.333,-4 2.333,-5.334 0.333,-8.667c-0.666,-1 -5,-6 -3,-8c2,-1.667 4,3.333 4,4.667c0,-1.334 -1,-10.667 2.334,-10c2,0.333 1.333,7.666 1.333,9.333c0.667,-3 2.921,-7.461 5.333,-6c2.588,2.207 -1.333,5.667 -2.666,8.667c2,-1.667 5.504,-3.003 6.333,-1c1,3.095 -3.667,4 -6.333,4c2.666,-0.334 7.333,0.247 7.333,3c-0.704,3.714 -9,-1.667 -12,4" style="fill:#008867;fill-rule:nonzero;"/><path d="M150.236,99.53c2.667,-6 13.334,-48.667 24,-30c6,10 -22.666,41.333 -27.333,35.333" style="fill:#ffa100;fill-rule:nonzero;"/><path d="M165.122,71.514c1.848,1.698 3.899,3.11 6.001,4.473c0.679,0.44 1.305,-0.643 0.631,-1.079c-2.013,-1.306 -3.977,-2.651 -5.748,-4.278c-0.592,-0.544 -1.479,0.338 -0.884,0.884" style="fill:#ff8700;fill-rule:nonzero;"/><path d="M163.247,78.764c1.949,1.545 3.988,2.953 6.126,4.223c0.695,0.412 1.324,-0.668 0.631,-1.079c-2.045,-1.215 -4.009,-2.549 -5.873,-4.028c-0.625,-0.495 -1.515,0.384 -0.884,0.884" style="fill:#ff8700;fill-rule:nonzero;"/><path d="M159.249,84.862c1.292,0.918 2.488,1.97 3.875,2.75c0.703,0.396 1.333,-0.684 0.631,-1.079c-1.386,-0.781 -2.583,-1.832 -3.875,-2.75c-0.659,-0.468 -1.282,0.617 -0.631,1.079" style="fill:#ff8700;fill-rule:nonzero;"/><path d="M165.122,68.514c1.848,1.698 3.899,3.11 6.001,4.473c0.679,0.44 1.305,-0.643 0.631,-1.079c-2.013,-1.306 -3.977,-2.651 -5.748,-4.278c-0.592,-0.544 -1.479,0.338 -0.884,0.884" style="fill:#ff8700;fill-rule:nonzero;"/><path d="M163.247,75.764c1.949,1.545 3.988,2.953 6.126,4.223c0.695,0.412 1.324,-0.668 0.631,-1.079c-2.045,-1.215 -4.009,-2.549 -5.873,-4.028c-0.625,-0.495 -1.515,0.384 -0.884,0.884" style="fill:#ff8700;fill-rule:nonzero;"/><path d="M159.249,81.862c1.292,0.918 2.488,1.97 3.875,2.75c0.703,0.396 1.333,-0.684 0.631,-1.079c-1.386,-0.781 -2.583,-1.832 -3.875,-2.75c-0.659,-0.468 -1.282,0.617 -0.631,1.079" style="fill:#ff8700;fill-rule:nonzero;"/><path d="M77.564,93.862c-0.666,11.333 -1.328,44.088 4.667,48.667c6.401,4.89 24.667,2.333 32.667,2.333c8.666,0 30.333,-0.333 38.333,-1c19.333,-1.333 15.333,-4.667 15.333,-26c0,-5.333 1.667,-20.667 -1,-24.667c-4.666,-6.666 -34.666,-2.666 -44,-2.666c-13.333,0.666 -26.666,0.666 -40,0.666" style="fill:#eb9c62;fill-rule:nonzero;"/><path d="M79.561,95.03c29.537,-1.313 59.106,-1.334 88.666,-1.334c3.224,-0 3.224,-5 0,-5c-29.56,0 -59.129,0.021 -88.666,1.334c-3.211,0.143 -3.225,5.144 -0,5" style="fill:#b17548;fill-rule:nonzero;"/><g opacity="0.5"><path d="M157.56,92.196c0.074,16.69 1.926,33.31 2,50c0.006,1.29 2.006,1.29 2,0c-0.074,-16.69 -1.926,-33.31 -2,-50c-0.006,-1.29 -2.006,-1.29 -2,0" style="fill:#b17548;fill-rule:nonzero;"/><path d="M144.56,93.529c1.62,16.51 1.666,33.092 1.667,49.666c0,1.29 2,1.29 2,0c-0.001,-16.574 -0.047,-33.156 -1.667,-49.666c-0.125,-1.271 -2.126,-1.284 -2,0" style="fill:#b17548;fill-rule:nonzero;"/><path d="M132.893,92.862c0.429,16.886 0.546,33.776 0.667,50.667c0.009,1.289 2.009,1.29 2,0c-0.121,-16.891 -0.238,-33.781 -0.667,-50.667c-0.033,-1.287 -2.033,-1.291 -2,0" style="fill:#b17548;fill-rule:nonzero;"/><path d="M121.56,93.529c0.024,16.78 0.642,33.553 0.667,50.333c0.002,1.29 2.002,1.29 2,0c-0.025,-16.78 -0.643,-33.553 -0.667,-50.333c-0.002,-1.29 -2.002,-1.29 -2,0" style="fill:#b17548;fill-rule:nonzero;"/><path d="M109.227,94.195c1.594,16.631 0.702,33.328 0.666,50c-0.003,1.29 1.997,1.29 2,-0c0.036,-16.672 0.928,-33.369 -0.666,-50c-0.122,-1.272 -2.123,-1.284 -2,-0" style="fill:#b17548;fill-rule:nonzero;"/><path d="M97.227,94.196c0.073,16.674 1.925,33.324 1,50c-0.071,1.289 1.929,1.282 2,0c0.925,-16.676 -0.927,-33.326 -1,-50c-0.006,-1.29 -2.006,-1.29 -2,0" style="fill:#b17548;fill-rule:nonzero;"/><path d="M84.893,93.862c1.674,16.61 1.987,33.316 2,50c0.001,1.29 2.001,1.29 2,0c-0.013,-16.684 -0.326,-33.39 -2,-50c-0.128,-1.271 -2.129,-1.283 -2,0" style="fill:#b17548;fill-rule:nonzero;"/></g><path d="M85.903,103.197c-3.334,-10.667 -6.15,-32.822 -20,-30.667c-15.758,2.452 -8.667,28.667 -2,37.333c6.667,8 8.667,10.667 18.667,12c5.333,0.667 22.333,2 27,0c2.666,-1.333 5.666,-12 1.666,-16.666c-3.333,-3.334 -16.995,-1.337 -25.333,-2" style="fill:#4f52c3;fill-rule:nonzero;"/><path d="M108.386,112.395c-0.705,8.069 6.325,7.958 10.399,7.827c13.375,-0.449 10.961,-2.75 2.277,-2.982c2.037,-0.172 8.974,-0.686 8.969,-2.46c-0.174,-1.418 -7.029,-0.909 -8.559,-1.539c9.181,0.381 13.991,-5.255 -0.186,-3.615c1.783,0.102 8.849,-2.028 7.689,-3.872c-0.833,-1.327 -8.179,1.379 -9.45,1.489c0.19,-1.051 2.242,-6.898 -0.926,-4.416c-3.335,2.613 -10.307,6.878 -10.213,9.568" style="fill:#fec4a3;fill-rule:nonzero;"/><path d="M110.902,103.537c-4.287,5.417 -4.493,12.379 -0.96,18.272c1.241,2.071 4.484,0.187 3.238,-1.893c-2.588,-4.316 -2.856,-9.647 0.373,-13.728c1.484,-1.874 -1.151,-4.547 -2.651,-2.651" style="fill:#3a3c93;fill-rule:nonzero;"/><path d="M31.621,212.561c1.687,5.47 5.797,9.217 9.227,13.604c1.085,1.388 3.006,-0.562 1.933,-1.934c-3.115,-3.983 -6.991,-7.429 -8.523,-12.397c-0.518,-1.679 -3.158,-0.962 -2.637,0.727" style="fill:#bd315f;fill-rule:nonzero;"/><path d="M96.951,238.016c5.43,1.2 10.902,0.262 16.363,-0.201c1.744,-0.148 1.758,-2.884 0,-2.735c-5.179,0.439 -10.484,1.438 -15.636,0.299c-1.719,-0.38 -2.449,2.257 -0.727,2.637" style="fill:#bd315f;fill-rule:nonzero;"/><path d="M55.285,20.07c0,13.86 -4.656,39.994 17.654,40.041c28.401,0.059 23.164,-17.711 20.725,-40.811" style="fill:#fec4a3;fill-rule:nonzero;"/><path d="M61.57,53.197c-17.006,-1.087 -27,-40.334 -9,-43c18,-2.667 11,33 9.666,43" style="fill:#2f4251;fill-rule:nonzero;"/><path d="M57.236,17.53c12,14.667 39,18.333 51.667,2.333c-16.212,-10.665 -46.009,-36.335 -53.667,-4.333" style="fill:#2f4251;fill-rule:nonzero;"/><path d="M48.57,16.863c7.091,-11.509 -11.667,-22.333 -18.334,-8.333c-4.666,10 8.326,19.532 16.667,12" style="fill:#2f4251;fill-rule:nonzero;"/><path d="M59.57,39.863c-12.667,-3.333 -9,13.334 0.333,6.667" style="fill:#fec4a3;fill-rule:nonzero;"/><path d="M70.57,49.863c0.576,5.571 1.303,11.054 1.333,16.667c0.049,9.025 14.049,9.03 14,0c-0.03,-5.613 -0.757,-11.096 -1.333,-16.667c-0.392,-3.794 -2.887,-7 -7,-7c-3.519,0 -7.393,3.197 -7,7" style="fill:#fec4a3;fill-rule:nonzero;"/><path d="M48.154,9.533c-1.157,4.509 -2.677,9.265 -6.851,11.84c-2.738,1.689 -0.229,6.015 2.523,4.317c5.342,-3.295 7.65,-8.984 9.149,-14.828c0.802,-3.125 -4.02,-4.451 -4.821,-1.329" style="fill:#fc417e;fill-rule:nonzero;"/><path d="M68.568,70.188c6.645,5.202 14.59,5.711 20.651,-0.666c1.665,-1.751 -0.982,-4.407 -2.651,-2.651c-4.552,4.788 -10.275,4.638 -15.349,0.666c-1.88,-1.473 -4.554,1.161 -2.651,2.651" style="fill:#3a3c93;fill-rule:nonzero;"/><path d="M75.903,38.738c2.418,0 2.418,-3.75 0,-3.75c-2.418,0 -2.418,3.75 0,3.75" style="fill:#2f4251;fill-rule:nonzero;"/><path d="M87.236,38.072c2.418,0 2.418,-3.75 0,-3.75c-2.418,0 -2.418,3.75 0,3.75" style="fill:#2f4251;fill-rule:nonzero;"/><path d="M74.57,43.863c0,11.334 14,10.334 12.666,-1" style="fill:#fff;fill-rule:nonzero;"/><path d="M69.064,48.697c3.224,0 3.224,-5 0,-5c-3.224,0 -3.224,5 0,5" style="fill:#fc417e;fill-rule:nonzero;"/><path d="M91.564,47.197c3.224,0 3.224,-5 0,-5c-3.224,0 -3.224,5 0,5" style="fill:#fc417e;fill-rule:nonzero;"/><g opacity="0.7"><path d="M80.957,36.205c0.217,0.862 0.248,1.749 0.375,2.625c0.041,0.279 0.375,0.402 0.615,0.349c0.489,-0.108 2.17,-0.247 1.411,0.662c-0.467,0.56 -2.028,0.241 -2.669,0.231c-0.645,-0.011 -0.644,0.989 0,1c1.444,0.024 3.357,0.322 3.864,-1.429c0.463,-1.601 -1.947,-1.633 -2.872,-1.428c0.205,0.116 0.41,0.233 0.615,0.349c-0.128,-0.879 -0.157,-1.759 -0.375,-2.625c-0.157,-0.625 -1.122,-0.359 -0.964,0.266" style="fill:#c0937a;fill-rule:nonzero;"/></g></g></svg>